<?xml version="1.0" encoding="UTF-8"?>
<svg id="_レイヤー_2" data-name="レイヤー 2" xmlns="http://www.w3.org/2000/svg" viewBox="0 0 320 256">
  <defs>
    <style>
      .cls-1 {
        fill: none;
      }
    </style>
  </defs>
  <g id="_0" data-name="0">
    <g>
      <rect class="cls-1" width="320" height="256"/>
      <g>
        <g id="LWPOLYLINE">
          <rect class="cls-1" x="20" y="148" width="300" height="108"/>
        </g>
        <g>
          <g id="LWPOLYLINE-2" data-name="LWPOLYLINE">
            <path d="m58.1615,217.6l-8.6723,26.799c-.8162,2.5222.5668,5.2285,3.089,6.0447.5175.1675,1.0597.2458,1.6035.2315l18.2844-.4788,22.9749-70.9964h24.853l-22.7625,70.3401,25.0654-.6564,10.1236-31.2837h24.853l-12.4265,38.4h-24.853l.7358-2.2736-86.6997,2.2703c-1.0875.0285-2.172-.1281-3.207-.463-5.0444-1.6324-7.8103-7.045-6.1779-12.0894l8.3634-25.8443h24.853Z"/>
          </g>
          <g>
            <g id="LWPOLYLINE-3" data-name="LWPOLYLINE">
              <polygon points="296.9833 247.6 272.1303 247.6 274.0719 241.6 298.9249 241.6 296.9833 247.6"/>
            </g>
            <g id="LWPOLYLINE-4" data-name="LWPOLYLINE">
              <polygon points="243.0057 241.6 267.8587 241.6 265.9171 247.6 241.0641 247.6 243.0057 241.6"/>
            </g>
            <g id="LWPOLYLINE-5" data-name="LWPOLYLINE">
              <path d="m211.9394,241.6h24.853l-2.0908,6.4611c-.4081,1.2611.2834,2.6142,1.5445,3.0223.2387.0772.488.1166.7389.1166h58.8333l-1.5533,4.8h-73.7887c-1.0036,0-2.0009-.1574-2.9557-.4663-5.0444-1.6324-7.8103-7.045-6.1779-12.0894l.5968-1.8443Z"/>
            </g>
            <g id="LWPOLYLINE-6" data-name="LWPOLYLINE">
              <polygon points="172.9125 256 181.2035 241.6 206.0565 241.6 197.7655 256 172.9125 256"/>
            </g>
            <g id="LWPOLYLINE-7" data-name="LWPOLYLINE">
              <path d="m182.8148,216.4h99.412l2.8675-8.8611c.4081-1.2611-.2834-2.6142-1.5445-3.0223-.2387-.0772-.488-.1166-.7389-.1166h-96.1128l1.5533-4.8h74.559l4.0325-12.4611c.4081-1.2611-.2834-2.6142-1.5445-3.0223-.2387-.0772-.488-.1166-.7389-.1166h-18.7758c-.7693,0-1.4919.3687-1.9433.9916l-7.1084,9.8084h-24.853l8.4311-11.6335c1.8057-2.4915,4.6962-3.9665,7.7733-3.9665h52.9849c1.0036,0,2.0009.1574,2.9557.4663,5.0444,1.6324,7.8103,7.045,6.1779,12.0894l-2.5385,7.8443h11.6562c1.0036,0,2.0009.1574,2.9557.4663,5.0444,1.6324,7.8103,7.045,6.1779,12.0894l-8.3634,25.8443h-124.265l1.5533-4.8h99.412s3.8833-12,3.8833-12h-99.412l1.5533-4.8Z"/>
            </g>
          </g>
        </g>
        <g>
          <path d="m24.8018,166.6234c0,.8461.0387,1.4988.1348,2.2289h-2.3244c.1154-.7687.1348-1.268.1348-2.2477v-5.6473c0-.518.0193-1.248.0574-2.1316-.4418.7488-.8643,1.3254-1.5557,2.093-.3076-1.0945-.4225-1.4215-.8643-2.3238,1.3635-1.4016,2.4006-3.0727,3.2074-5.0707.4037-.9984.6721-1.9207.7682-2.5734l2.1896.6527q-.0574.1348-.1535.3844c-.0381.0762-.1342.307-.2496.6527-.365.9984-.9029,2.2277-1.3447,3.0727v10.9102Zm6.1658-13.2141c0-1.0383-.0193-1.5949-.1154-2.2863h2.2477c-.0961.6727-.1154,1.1906-.1154,2.2863v.5566h2.9578c.9797,0,1.5562-.0187,2.0168-.0773-.0574.4992-.0768.9035-.0768,1.691v6.8566c0,1.1531.0193,1.6137.0961,2.1703h-2.1129v-.9984h-2.8811v2.9965c0,1.1332.0193,1.6523.1154,2.3238h-2.2477c.0961-.6914.1154-1.248.1154-2.3051v-3.0152h-2.7082v1.0184h-2.0936c.0768-.6152.0961-1.1719.0961-2.2289v-6.818c0-.7301-.0193-1.2105-.0768-1.691.4418.0586,1.0371.0773,2.0168.0773h2.7656v-.5566Zm-2.7275,2.4199v1.9969h2.7275v-1.9969h-2.7275Zm0,3.784v2.1129h2.7275v-2.1129h-2.7275Zm7.6447-1.7871v-1.9969h-2.9004v1.9969h2.9004Zm0,3.9v-2.1129h-2.9004v2.1129h2.9004Z"/>
          <path d="m39.585,153.0637c.3645.0375.5186.0574.9604.0574,2.2471,0,4.6482-.2695,5.4551-.6152l1.21,2.0742c-.9223.5766-1.5562,1.1332-2.3625,2.0941-1.633,1.9207-2.4779,3.8613-2.4779,5.6859,0,2.0742,1.3254,3.4758,3.2842,3.4758,1.5756,0,2.9004-.9023,3.515-2.3813.4998-1.1906.7107-2.4398.7107-4.1871,0-2.1516-.4225-4.4566-1.0371-5.8395l2.3051-.6727c.8449,2.7668,3.0346,5.8008,5.1287,7.0875l-1.1912,2.2863c-.0768-.0773-.1342-.1348-.1535-.1734-.0387-.0187-.1348-.1148-.2883-.2496-1.2674-1.1707-1.9207-2.0168-3.0732-3.9375.3264,1.3828.4037,2.0367.4037,3.3621,0,4.1297-2.6127,7.0676-6.2426,7.0676-1.2105,0-2.4205-.3258-3.3041-.9023-1.4789-.9797-2.3818-2.823-2.3818-4.8984,0-1.4977.4805-3.1875,1.3254-4.6289.4418-.7875,1.2293-1.7859,1.94-2.4773q.0768-.0574.3264-.2883c.058-.0773.0773-.0961.2115-.2109-.1535.0188-.2496.0375-.2883.0574l-.2496.0574q-1.1139.1922-3.2074.3645c-.2496.0199-.2689.0199-.4805.0586l-.0381-2.2664Zm13.234-1.4602c.8449.9023,1.3635,1.6324,2.0168,2.823l-1.3447.7113c-.634-1.1719-1.1713-1.9406-2.0168-2.8617l1.3447-.6727Zm2.9771,2.3238c-.576-1.0559-1.21-1.9594-1.9594-2.7855l1.2873-.6715c.8643.8836,1.4021,1.6137,1.9975,2.7082l-1.3254.7488Z"/>
          <path d="m60.8598,153.2359c-.1535.4418-.2496.8062-.4037,1.6324-.2109,1.0758-.2303,1.2867-.4418,3.4582,0,.0762-.0574.4219-.0574.518q-.0574.2309-.0574.3656l.0574.0188c.2883-.8262.4611-1.1719.8262-1.6711.6721-.9223,1.6898-1.8246,2.6695-2.3813.7494-.4418,1.3834-.6539,2.4205-.8461-.1535-2.093-.1535-2.2277-.3076-2.8043l2.4012-.0574c-.0193.1734-.0193.2883-.0193.3457,0,.0961.0768,1.7484.1154,2.3238,1.7479.0387,3.1307.5965,4.2064,1.6523.999.9797,1.5176,2.2863,1.5176,3.8027,0,3.3809-2.6127,5.8207-6.2045,5.8207-.2689,0-.4225,0-.7295-.0387-.9416,1.4602-1.8252,2.3051-3.5344,3.3609-.6533-.7102-.9604-.9797-1.8633-1.575,1.1719-.518,2.3244-1.4016,2.9965-2.3051q.0574-.0961.0961-.1336c-.1535-.0586-.2689-.116-.5379-.2695-1.0758-.5953-1.6324-1.1719-2.516-2.516.5186-.634.7107-.9609,1.1525-1.9594.7488,1.5363,1.4977,2.3051,2.785,2.8617.3838-1.0371.5566-2.4773.5566-4.6477,0-.6914,0-1.1145-.0381-1.7484-1.8826.5578-3.1693,1.4215-4.2645,2.9578-1.0178,1.4027-1.4789,2.6895-1.4789,4.1684,0,.3844.0193.5766.0961.9996l-2.2277.1336q0-.3645-.0961-1.4977c-.058-.8262-.0961-1.9207-.0961-2.8242,0-1.8633.1729-4.1098.4799-5.993.1154-.7875.1348-.8824.1348-1.3055l2.3625.1535Zm7.3371,4.9359c0,2.0555-.0961,3.0352-.4418,4.4754-.1148.4617-.1148.5004-.1729.5965.2496,0,.4418,0,.634-.0199.5186-.0387,1.1332-.2684,1.6137-.5766,1.0178-.6328,1.6518-1.8434,1.6518-3.1687,0-1.2293-.5572-2.2277-1.5176-2.7656-.5379-.2883-.9984-.423-1.8053-.4992.0193.7289.0381,1.2094.0381,1.9582Z"/>
          <path d="m85.574,153.0437c-.3264.2309-.6914.5566-2.3625,2.1129-.9797.9023-2.3238,1.9781-4.5715,3.6879-.5953.4418-.7295.5953-.7295.8074,0,.2871.0381.3258,1.7285,1.5937,2.9965,2.2664,3.5531,2.7469,6.0504,5.0133.1922.1922.3076.2883.5572.4805l-1.9787,1.9969c-.4992-.6914-1.1906-1.4215-2.4967-2.6309-1.3641-1.268-1.998-1.7871-4.9559-4.091-1.268-.9797-1.6137-1.4988-1.6137-2.3824,0-.5766.2115-1.0945.634-1.5551.2496-.2695.2689-.2883,1.6904-1.384,2.0742-1.575,3.15-2.4961,4.4367-3.7453.8648-.8637,1.0758-1.1133,1.4021-1.5938l2.209,1.6898Z"/>
          <path d="m90.0236,154.3305c0-.9211-.0193-1.3828-.0773-1.9781.5379.0387.999.0574,2.0941.0574h3.0346c.7875,0,1.1525-.0187,1.6518-.0574-.0381.4605-.0574.8449-.0574,1.7484v8.7199c0,1.0371.0193,1.5363.0381,1.9594h-1.9781v-.7113h-2.7082v1.4215h-2.1129c.0768-.6141.1154-1.3254.1154-2.2852v-8.8746Zm1.9781,2.8629h2.7275v-2.9004h-2.7275v2.9004Zm0,5.032h2.7275v-3.2461h-2.7275v3.2461Zm7.7215.5379c-.2115,1.1133-.5379,2.1129-.999,3.0926-.576,1.2293-1.21,2.0555-2.3813,3.1301-.4998-.6527-.8836-1.0172-1.6904-1.5551,1.4982-1.1719,2.1703-2.1129,2.7469-3.8227.5186-1.6523.7102-3.3996.7102-6.934,0-2.5547-.0381-3.9762-.1342-4.7824.6721.0574,1.1139.0762,2.1322.0762h4.1484c1.0758,0,1.4982-.0188,2.0748-.0762-.058.4793-.0768,1.0758-.0768,2.1129v12.5039c0,1.7098-.5766,2.1516-2.8043,2.1516-.327,0-1.0184-.0199-1.5369-.0387-.0961-.9223-.2115-1.4602-.5186-2.1703.941.1535,1.5363.2109,1.9781.2109.6727,0,.8068-.0961.8068-.5953v-3.3035h-4.4561Zm.4031-4.5527c-.0187.9223-.0768,1.7484-.1729,2.6707h4.2258v-2.6707h-4.0529Zm4.0529-4.3219h-4.0143v2.5172h4.0143v-2.5172Z"/>
          <path d="m108.3799,154.0422c0-.7488-.0387-1.4203-.0961-2.0543.6146.0762,1.248.0961,2.1316.0961h9.2965c.9029,0,1.4982-.0199,2.0748-.0961-.0768.7301-.0961,1.2867-.0961,1.9594v12.4078c0,.9984.0381,1.6324.1154,2.3238h-2.3244v-1.152h-8.9314v1.152h-2.2857c.0768-.6527.1154-1.4215.1154-2.3238v-12.3129Zm2.1703,4.534h8.9314v-4.4566h-8.9314v4.4566Zm0,6.934h8.9314v-4.9172h-8.9314v4.9172Z"/>
          <path d="m123.0283,160.8426c.8262-.5766,1.6518-1.5176,4.1871-4.7062.4998-.6141.8262-.9598,1.1912-1.2105.5186-.3832,1.0564-.5754,1.5363-.5754.5766,0,1.1525.2496,1.7291.7301.2689.2297.6914.6715,1.2867,1.3828,1.7479,2.0543,3.6111,3.9563,5.7434,5.877.9791.8648,1.4596,1.2492,2.0936,1.6137l-1.1719,2.727c-.1922-.2297-.2689-.307-.5572-.5566-.9984-.8836-2.516-2.3238-3.9182-3.7266-1.4596-1.4977-1.4982-1.5551-3.5537-3.8988-1.1906-1.3641-1.3061-1.4602-1.6711-1.4602-.307,0-.4992.1734-1.152,1.0383-1.575,2.1117-2.6314,3.3996-3.784,4.6477-.2115.2309-.2496.2883-.4037.5191l-1.5557-2.4012Z"/>
        </g>
        <rect x="142.4" y="159.4" width="177.6" height="1.2"/>
      </g>
    </g>
  </g>
</svg>