<?xml version="1.0" encoding="UTF-8"?>
<svg id="_レイヤー_2" data-name="レイヤー_2" xmlns="http://www.w3.org/2000/svg" viewBox="0 0 768 256">
  <defs>
    <style>
      .cls-1 {
        fill: none;
      }

      .cls-2 {
        fill: #006400;
      }

      .cls-3 {
        fill: #fff;
      }
    </style>
  </defs>
  <g id="_x30_">
    <rect class="cls-3" width="768" height="256"/>
    <g>
      <g id="LWPOLYLINE">
        <polygon class="cls-2" points="148.4457 256 94.7801 256 152.3072 140.9458 195.2397 162.412 148.4457 256"/>
      </g>
      <g id="LWPOLYLINE-2" data-name="LWPOLYLINE">
        <polygon class="cls-2" points="157.39 256 205.9728 158.8343 148.7295 130.2126 85.8358 256 76.8915 256 111.9971 185.7889 54.7538 157.1672 5.3373 256 0 256 0 0 256 0 256 256 237.8884 256 250.6627 230.4515 193.4193 201.8299 166.3342 256 157.39 256"/>
      </g>
      <g id="LWPOLYLINE-3" data-name="LWPOLYLINE">
        <polygon class="cls-2" points="239.9295 234.0292 228.9441 256 175.2785 256 196.997 212.563 239.9295 234.0292"/>
      </g>
      <g id="LWPOLYLINE-4" data-name="LWPOLYLINE">
        <polygon class="cls-2" points="101.264 189.3666 67.9472 256 14.2816 256 58.3315 167.9003 101.264 189.3666"/>
      </g>
    </g>
    <g>
      <g id="LWPOLYLINE-5" data-name="LWPOLYLINE">
        <rect class="cls-1" x="288" y="104" width="384" height="144"/>
      </g>
      <g>
        <g id="LWPOLYLINE-6" data-name="LWPOLYLINE">
          <path d="M335.7316,200l-10.8404,33.4988c-1.0202,3.1527.7085,6.5356,3.8612,7.5559.6469.2093,1.3247.3072,2.0044.2894l22.8555-.5985,28.7187-88.7455h31.0663l-28.4532,87.9251,31.3318-.8205,12.6545-39.1046h31.0663l-15.5331,48h-31.0663l.9197-2.842-108.3746,2.8379c-1.3594.0356-2.715-.1601-4.0088-.5788-6.3055-2.0405-9.7629-8.8062-7.7224-15.1117l10.4542-32.3054h31.0663Z"/>
        </g>
        <g>
          <g id="LWPOLYLINE-7" data-name="LWPOLYLINE">
            <polygon points="634.2589 237.5 603.1926 237.5 605.6197 230 636.6859 230 634.2589 237.5"/>
          </g>
          <g id="LWPOLYLINE-8" data-name="LWPOLYLINE">
            <polygon points="566.7869 230 597.8531 230 595.4261 237.5 564.3598 237.5 566.7869 230"/>
          </g>
          <g id="LWPOLYLINE-9" data-name="LWPOLYLINE">
            <path d="M527.954,230h31.0663l-2.6136,8.0763c-.5101,1.5764.3542,3.2678,1.9306,3.7779.2984.0966.61.1457.9237.1457h73.5416s-1.9416,6-1.9416,6h-92.2359c-1.2544,0-2.5011-.1967-3.6946-.5829-6.3055-2.0405-9.7629-8.8062-7.7224-15.1117l.746-2.3054Z"/>
          </g>
          <g id="LWPOLYLINE-10" data-name="LWPOLYLINE">
            <polygon points="479.1703 248 489.5341 230 520.6004 230 510.2366 248 479.1703 248"/>
          </g>
          <g id="LWPOLYLINE-11" data-name="LWPOLYLINE">
            <path d="M491.5483,198.5h124.265l3.5844-11.0763c.5101-1.5764-.3542-3.2678-1.9306-3.7779-.2984-.0966-.61-.1457-.9237-.1457h-120.141l1.9416-6h93.1988l5.0406-15.5763c.5101-1.5764-.3542-3.2678-1.9306-3.7779-.2984-.0966-.61-.1457-.9237-.1457h-23.4698c-.9616,0-1.8649.4609-2.4291,1.2395l-8.8855,12.2605h-31.0663l10.5389-14.5419c2.2571-3.1144,5.8703-4.9581,9.7166-4.9581h66.2311c1.2544,0,2.5011.1967,3.6946.5829,6.3055,2.0405,9.7629,8.8062,7.7224,15.1117l-3.1731,9.8054h14.5703c1.2544,0,2.5011.1967,3.6946.5829,6.3055,2.0405,9.7629,8.8062,7.7224,15.1117l-10.4542,32.3054h-155.3313l1.9416-6h124.265s4.8541-15,4.8541-15h-124.265l1.9416-6Z"/>
          </g>
        </g>
      </g>
      <g>
        <g id="LWPOLYLINE-12" data-name="LWPOLYLINE">
          <rect class="cls-1" x="288" y="104" width="375" height="48"/>
        </g>
        <g>
          <rect x="445.5" y="127.25" width="214.5" height="1.5"/>
          <g>
            <g id="LWPOLYLINE-13" data-name="LWPOLYLINE">
              <rect class="cls-1" x="288" y="116" width="157.5" height="24"/>
            </g>
            <g>
              <path d="M306.5837,116.9914h-3.1011v4.2715h-6.2227v13.7743h3.2065v-1.5187h3.0161v5.9802h3.1011v-5.9802h2.8052v1.329h3.2065v-13.5846h-6.0117v-4.2715ZM300.4665,126.2935v-2.3621h3.0161v2.3621h-3.0161ZM303.4826,128.8672v2.0775h-3.0161v-2.0775h3.0161ZM309.3889,128.8672v2.0775h-2.8052v-2.0775h2.8052ZM306.5837,126.2935v-2.3621h2.8052v2.3621h-2.8052Z"/>
              <path d="M297.8338,117.7234l-3.0535-1.3143-.1311.316c-1.9493,4.697-3.9913,8.4064-6.0699,11.0251l-.1527.1923.1362.2047c.4175.6266.8383,1.3217,1.2513,2.0654l.2468.4442.3138-.3999c.6182-.7881,1.229-1.6091,1.8226-2.4507v11.8821h3.1011v-16.7626c.6262-1.0778,1.4323-2.722,2.3965-4.8904l.1388-.312Z"/>
              <path d="M335.5363,116.9419l-.1754-.1469-1.6838,1.166,2.5649,2.9106,1.7758-1.37-.1893-.2384c-.6354-.7994-1.4066-1.5806-2.2921-2.3214Z"/>
              <path d="M333.5508,122.5805l.178.1586,1.7809-1.2598-.223-.2509c-1.0269-1.1539-1.8105-1.9142-2.3958-2.324l-.1688-.1183-1.5762,1.0635.2208.256c1.7534,2.0288,2.0881,2.3895,2.1841,2.4749Z"/>
              <path d="M334.3725,128.5523c-.4852-.7075-1.1089-1.8303-1.8431-3.3142-.4347-1.1169-1.0016-2.6473-1.6846-4.5487l-.089-.2472-2.9.6262.071.2981c.368,1.5454.5544,3.1117.5544,4.6553,0,2.3708-.2461,4.2378-.7233,5.5291-.5361,1.1799-1.2568,2.0742-2.139,2.6561-.8214.5281-1.8395.7961-3.0253.7961-1.2924,0-2.2972-.3146-2.9967-.9437-.6833-.5636-1.0159-1.3436-1.0159-2.3844,0-.9595.3036-2.0193.9093-3.1633.4849-1.0364,1.2872-2.2588,2.3848-3.6332,1.0422-.9371,2.0398-1.7787,2.9656-2.5012l.252-.197-1.8461-2.0768-.1897.0667c-2.209.7742-4.8604,1.2224-7.8805,1.333l-.3171.0117.2446,2.64.2988-.0278c1.5044-.1403,3.0681-.3992,4.6619-.7709-1.2957,1.4-2.3287,2.8121-3.0743,4.203-.8357,1.4458-1.259,2.9158-1.259,4.3689,0,1.7164.6031,3.0992,1.7867,4.1045,1.1763,1.0587,2.8209,1.5956,4.8882,1.5956,1.667,0,3.2611-.4098,4.7395-1.2191,1.3678-.761,2.3588-1.8904,2.948-3.3644.4321-1.1678.6841-2.9612.7507-5.3416.3992.8372.813,1.6219,1.2334,2.339.505.9675,1.1781,1.9779,2.0006,3.0022l.1842.2292,2.4683-1.9039-.2347-.2413c-.8544-.8771-1.5681-1.7428-2.1237-2.5759Z"/>
              <path d="M354.1311,122.1297c-.631-.3402-1.6853-.5911-3.2175-.7643v-2.5518l-3.1128-.108.0824.3768c.0586.2703.1044.5709.1348.8917.0311.3387.0619.6647.0941.9727.0234.2362.0377.4805.0432.728-1.2319.4329-2.2222.8716-2.9462,1.3055-.9587.5757-1.8629,1.3019-2.6711,2.1434-.5167.4651-1.1558,1.2517-1.9413,2.3921.0806-1.0294.1443-1.8578.1912-2.4844.0597-.8163.3391-2.0431.8313-3.6467l.0934-.3043-3.0677-.7434-.0469.3267c-.4995,3.4794-.7529,6.219-.7529,8.1427,0,1.4213.1586,3.2802.4717,5.5258l.0436.3138,2.759-.5398-.0546-.2922c-.1586-.8507-.1824-1.1239-.1824-1.2107,0-.7841.364-1.782,1.0803-2.9645.9148-1.4813,2.0896-2.7894,3.4991-3.8925.6987-.5812,1.6318-1.1056,2.7781-1.5623-.0546,2.2104-.0824,4.1873-.0802,5.851-.1018.8185-.2032,1.4725-.3029,1.9508-.6057-.1732-1.0701-.4753-1.4165-.9218-.4633-.5717-.7888-1.4601-.9675-2.6404l-.0454-.2999-2.6682.4365.0601.3043c.3248,1.6388.7749,2.7865,1.3828,3.516.6881.7742,1.5601,1.3726,2.5964,1.7823-.817.7672-2.1449,1.4216-3.9562,1.949l-.5171.1509.4003.3604c.1128.1014.2432.2454.3875.427.1377.1743.2355.3105.2904.405.0707.186.1633.3494.2772.4874.0264.0315.0707.1143.0707.3135v.3981l.3827-.1099c1.4015-.4017,2.632-.9851,3.6595-1.7355.7375-.5522,1.4553-1.3004,2.1346-2.2258,2.4261-.1329,4.3011-.7804,5.5737-1.9255,1.3099-1.1792,1.9742-2.7587,1.9742-4.6948,0-1.4008-.2992-2.5895-.8958-3.5438-.713-1.0488-1.5388-1.8201-2.4492-2.2892ZM350.9128,128.9126c.0601-.8254.0919-2.5642.0945-5.1702,1.0071.141,1.7772.4929,2.2899,1.0463.7573.8401,1.1415,1.908,1.1415,3.174,0,1.3707-.3794,2.4338-1.1195,3.152-.6295.5665-1.5179.9016-2.6444.9979.1586-1.3059.2388-2.3866.238-3.2Z"/>
              <path d="M362.4393,127.9008c1.3114-.5614,2.4928-1.3616,4.2484-2.3771,2.183-1.2341,4.3348-2.573,6.3966-3.9789l.2849-.1945-2.1068-2.3177-.2194.1714c-3.286,2.5668-6.6464,4.7714-9.9789,6.5482-.7079.3475-1.299.7321-1.756,1.1437-.3146.2831-.4742.6702-.4742,1.151,0,.2227.0758.4709.2461.7687.1432.1941.4083.4351.8317.7511,2.0413,1.281,3.7679,2.4675,5.1277,3.5233,1.1774.9496,3.03,2.7019,5.506,5.2086l.1776.1794,2.577-1.7922-.2754-.2534c-2.7484-2.5287-4.9655-4.4099-6.5947-5.5946-1.3773-.9573-2.4283-1.8695-3.8628-2.7118l-.2649-.1596.1371-.0656Z"/>
              <path d="M441.5899,132.971c-2.2401-1.5674-3.5288-2.4723-3.828-2.6887-1.8611-1.4509-3.8445-3.0945-5.8967-4.8856-2.3361-1.9515-2.8154-2.313-2.9927-2.4166-.4219-.1901-.8522-.2864-1.2788-.2864-.9423,0-1.894.6229-2.9084,1.9017-.4318.4988-2.0021,2.0808-4.6674,4.7029l-.2988.2944,2.4675,1.9988.2384-.2457c1.756-1.8065,3.123-3.3523,4.0638-4.5945.579-.7826.7969-.9353.8379-.9595l.0553-.0059.056-.0509c.0187-.0048.0656-.0132.1556-.0132.0795,0,.1271.007.1501.0103l.071.0414c.3391.1523.6965.3655,1.028.6112.9987.9005,2.0076,1.8369,3,2.7847,1.7428,1.5699,4.3367,3.6771,7.7102,6.2626l.2816.2164,2.0405-2.3774.0542-.0626-.3395-.2373Z"/>
              <path d="M387.1897,118.1834c0,5.9026-.1047,9.5244-.3138,10.7794-.2032,1.6487-.7174,3.1007-1.5231,4.3092-.8203,1.1689-2.1804,2.4855-4.0426,3.9126l-.3223.2468.3018.2717c.8965.8068,1.5282,1.4066,1.8772,1.7823l.2157.2325.2454-.201c.7654-.6273,1.6208-1.3652,2.543-2.1932l.0337-.0352c.6368-.7639,1.2488-1.6058,1.8142-2.4965.4164-.6233.8518-1.5696,1.3282-2.8872h5.5419v4.4084c0,.0242-.0026.0385,0,.0396l-3.3523.0026.4812.5581c.6302.7306.7577.9686.7822,1.0342.0659.1802.1161.33.1498.4479.0344.1263.1223.4427.264.951l.0842.3014.3073-.0612c1.9746-.3951,3.1996-.8247,3.7452-1.3143.494-.4442.7449-1.1675.7449-2.1493v-18.2776h-10.9058v.3376ZM394.8889,126.1148v3.0264h-4.9757c.1073-.9031.1926-1.9182.2545-3.0264h4.7212ZM390.1853,123.4458v-2.8367h4.7036v2.8367h-4.7036Z"/>
              <path d="M385.2282,118.7949h-9.4292v15.3073h3.1011v-1.4286h6.3281v-13.8787ZM382.0217,127.1588v2.7513h-3.1216v-2.7513h3.1216ZM382.0217,121.3687v3.2164h-3.1216v-3.2164h3.1216Z"/>
              <path d="M400.7915,139.1489h3.3091v-1.6809h10.4238v1.2854h3.4189v-20.6345h-17.1519v21.03ZM404.1006,126.3257v-5.3701h10.4238v5.3701h-10.4238ZM414.5244,128.9646v5.7656h-10.4238v-5.7656h10.4238Z"/>
            </g>
          </g>
        </g>
      </g>
    </g>
  </g>
</svg>