<?xml version="1.0" encoding="UTF-8"?>
<svg id="_レイヤー_2" data-name="レイヤー_2" xmlns="http://www.w3.org/2000/svg" viewBox="0 0 256 360">
  <defs>
    <style>
      .cls-1 {
        fill: none;
      }

      .cls-2 {
        fill: #006400;
      }

      .cls-3 {
        fill: none;
      }

      .texts path, .texts polygon {
        fill: #000;
      }

      .catch {
        .texts path {fill: #000;}
        .bar {fill: #000;}
      }


      @media (prefers-color-scheme: dark) {
        .cls-1 {
          fill: none;
        }

        .cls-2 {
          fill: #fff;
        }

        .cls-3 {
          fill: none;
        }
        .texts path, .texts polygon {
          fill: #fff;
        }
        .catch {
          .texts path {fill: #fff;}
          .bar {fill: #fff;}
        }
      }
    </style>
  </defs>
  <g id="_x30_">
    <g>
      <!-- <rect class="cls-3" width="256" height="384"/> -->
      <g>
        <g id="LWPOLYLINE">
          <polygon class="cls-2" points="148.4457 256 94.7801 256 152.3072 140.9458 195.2397 162.412 148.4457 256"/>
        </g>
        <g id="LWPOLYLINE-2" data-name="LWPOLYLINE">
          <polygon class="cls-2" points="157.39 256 205.9728 158.8343 148.7295 130.2126 85.8358 256 76.8915 256 111.9971 185.7889 54.7538 157.1672 5.3373 256 0 256 0 0 256 0 256 256 237.8884 256 250.6627 230.4515 193.4193 201.8299 166.3342 256 157.39 256"/>
        </g>
        <g id="LWPOLYLINE-3" data-name="LWPOLYLINE">
          <polygon class="cls-2" points="239.9295 234.0292 228.9441 256 175.2785 256 196.997 212.563 239.9295 234.0292"/>
        </g>
        <g id="LWPOLYLINE-4" data-name="LWPOLYLINE">
          <polygon class="cls-2" points="101.264 189.3666 67.9472 256 14.2816 256 58.3315 167.9003 101.264 189.3666"/>
        </g>
      </g>
      <g class="texts">
        <g id="LWPOLYLINE-5" data-name="LWPOLYLINE">
          <path d="M35.8211,328l-7.227,22.3325c-.6802,2.1018.4723,4.3571,2.5741,5.0372.4313.1396.8831.2048,1.3363.1929l15.237-.399,19.1458-59.1637h20.7108l-18.9688,58.6167,20.8878-.547,8.4364-26.0698h20.7108l-10.3554,32h-20.7108l.6131-1.8947-72.2497,1.8919c-.9063.0237-1.81-.1068-2.6725-.3859-4.2037-1.3603-6.5086-5.8708-5.1483-10.0745l6.9695-21.5369h20.7108Z"/>
        </g>
        <g>
          <g id="LWPOLYLINE-6" data-name="LWPOLYLINE">
            <polygon points="234.8392 353 214.1284 353 215.7464 348 236.4573 348 234.8392 353"/>
          </g>
          <g id="LWPOLYLINE-7" data-name="LWPOLYLINE">
            <polygon points="189.8579 348 210.5687 348 208.9507 353 188.2399 353 189.8579 348"/>
          </g>
          <g id="LWPOLYLINE-8" data-name="LWPOLYLINE">
            <path d="M163.9694,348h20.7108l-1.7424,5.3842c-.3401,1.0509.2362,2.1785,1.2871,2.5186.1989.0644.4067.0972.6158.0972h49.0278l-1.2944,4h-61.4906c-.8363,0-1.6674-.1311-2.4631-.3886-4.2037-1.3603-6.5086-5.8708-5.1483-10.0745l.4974-1.5369Z"/>
          </g>
          <g id="LWPOLYLINE-9" data-name="LWPOLYLINE">
            <polygon points="131.4469 360 138.3561 348 159.0669 348 152.1577 360 131.4469 360"/>
          </g>
          <g id="LWPOLYLINE-10" data-name="LWPOLYLINE">
            <path d="M139.6988,327h82.8433l2.3896-7.3842c.3401-1.0509-.2362-2.1785-1.2871-2.5186-.1989-.0644-.4067-.0972-.6158-.0972h-80.094l1.2944-4h62.1325l3.3604-10.3842c.3401-1.0509-.2362-2.1785-1.2871-2.5186-.1989-.0644-.4067-.0972-.6158-.0972h-15.6465c-.641,0-1.2432.3073-1.6194.8264l-5.9237,8.1736h-20.7108l7.026-9.6946c1.5047-2.0763,3.9135-3.3054,6.4777-3.3054h44.1541c.8363,0,1.6674.1311,2.4631.3886,4.2037,1.3603,6.5086,5.8708,5.1483,10.0745l-2.1154,6.5369h9.7135c.8363,0,1.6674.1311,2.4631.3886,4.2037,1.3603,6.5086,5.8708,5.1483,10.0745l-6.9695,21.5369h-103.5542l1.2944-4h82.8433s3.2361-10,3.2361-10h-82.8433l1.2944-4Z"/>
          </g>
        </g>
      </g>
      <g class="catch">
        <rect class="bar" x="111" y="279.5" width="139" height="1"/>
        <g class="texts">
          <path d="M18.3891,272.6609h-2.0674v2.8477h-4.1484v9.1829h2.1377v-1.0125h2.0107v3.9868h2.0674v-3.9868h1.8701v.886h2.1377v-9.0564h-4.0078v-2.8477ZM14.311,278.8623v-1.5747h2.0107v1.5747h-2.0107ZM16.3217,280.5781v1.385h-2.0107v-1.385h2.0107ZM20.2592,280.5781v1.385h-1.8701v-1.385h1.8701ZM18.3891,278.8623v-1.5747h1.8701v1.5747h-1.8701Z"/>
          <path d="M12.5559,273.149l-2.0356-.8762-.0874.2107c-1.2996,3.1313-2.6609,5.6042-4.0466,7.3501l-.1018.1282.0908.1365c.2783.4177.5588.8811.8342,1.377l.1646.2961.2092-.2666c.4121-.5254.8193-1.0728,1.2151-1.6338v7.9214h2.0674v-11.175c.4175-.7185.9548-1.8147,1.5977-3.2603l.0925-.208Z"/>
          <path d="M37.6909,272.628l-.1169-.0979-1.1226.7773,1.71,1.9404,1.1838-.9133-.1262-.1589c-.4236-.533-.9377-1.0537-1.5281-1.5476Z"/>
          <path d="M36.3672,276.387l.1187.1057,1.1873-.8398-.1487-.1672c-.6846-.7693-1.207-1.2761-1.5972-1.5493l-.1125-.0789-1.0508.709.1472.1707c1.1689,1.3525,1.3921,1.593,1.4561,1.6499Z"/>
          <path d="M36.915,280.3682c-.3235-.4717-.7393-1.2202-1.2288-2.2095-.2898-.7446-.6677-1.7649-1.123-3.0325l-.0593-.1648-1.9333.4175.0474.1987c.2454,1.0303.3696,2.0745.3696,3.1035,0,1.5806-.1641,2.8252-.4822,3.686-.3574.7866-.8379,1.3828-1.426,1.7708-.5476.3521-1.2263.5308-2.0168.5308-.8616,0-1.5315-.2097-1.9978-.6292-.4556-.3757-.6772-.8958-.6772-1.5896,0-.6396.2024-1.3462.6062-2.1089.3232-.6909.8582-1.5059,1.5898-2.4221.6948-.6248,1.3599-1.1858,1.9771-1.6675l.168-.1313-1.2307-1.3845-.1265.0444c-1.4727.5161-3.2402.8149-5.2537.8887l-.2114.0078.1631,1.76.1992-.0186c1.0029-.0935,2.0454-.2661,3.1079-.5139-.8638.9333-1.5525,1.8748-2.0496,2.802-.5571.9639-.8394,1.9438-.8394,2.9126,0,1.1443.4021,2.0662,1.1912,2.7363.7842.7058,1.8806,1.0637,3.2588,1.0637,1.1113,0,2.1741-.2732,3.1597-.8127.9119-.5073,1.5725-1.2603,1.9653-2.2429.2881-.7786.4561-1.9741.5005-3.561.2661.5581.542,1.0813.8223,1.5593.3367.645.7854,1.3186,1.3337,2.0015l.1228.1528,1.6455-1.2693-.1565-.1609c-.5696-.5847-1.0454-1.1619-1.4158-1.7173Z"/>
          <path d="M50.0874,276.0865c-.4207-.2268-1.1235-.394-2.145-.5095v-1.7012l-2.0752-.072.0549.2512c.0391.1802.0696.3806.0898.5945.0208.2258.0413.4431.0627.6484.0156.1575.0251.3203.0288.4854-.8213.2886-1.4814.5811-1.9641.8704-.6392.3838-1.2419.8679-1.7808,1.429-.3445.3101-.7705.8345-1.2942,1.5947.0537-.6863.0962-1.2385.1274-1.6562.0398-.5442.2261-1.3621.5542-2.4312l.0623-.2029-2.0452-.4956-.0312.2178c-.333,2.3196-.502,4.146-.502,5.4285,0,.9475.1057,2.1868.3145,3.6838l.0291.2092,1.8394-.3599-.0364-.1948c-.1057-.5671-.1216-.7493-.1216-.8071,0-.5227.2427-1.188.7202-1.9763.6099-.9875,1.3931-1.8596,2.3328-2.595.4658-.3875,1.0879-.7371,1.8521-1.0415-.0364,1.4736-.0549,2.7915-.0535,3.9006-.0679.5457-.1355.9817-.2019,1.3005-.4038-.1155-.7134-.3169-.9443-.6145-.3088-.3811-.5259-.9734-.645-1.7603l-.0303-.2-1.7788.291.04.2029c.2166,1.0925.5166,1.8577.9219,2.344.4587.5161,1.04.915,1.731,1.1882-.5447.5115-1.4299.9478-2.6375,1.2993l-.3447.1006.2668.2402c.0752.0676.1621.1636.2583.2847.0918.1162.157.207.1936.27.0471.124.1089.2329.1848.325.0176.021.0471.0762.0471.209v.2654l.2551-.0732c.9343-.2678,1.7546-.6567,2.4397-1.157.4917-.3682.9702-.8669,1.4231-1.4839,1.6174-.0886,2.8674-.5203,3.7158-1.2837.8733-.7861,1.3162-1.8391,1.3162-3.1299,0-.9338-.1995-1.7263-.5972-2.3625-.4753-.6992-1.0259-1.2134-1.6328-1.5261ZM47.9419,280.6084c.04-.5503.0613-1.7095.063-3.4468.6714.094,1.1848.3286,1.5266.6975.5049.5601.761,1.272.761,2.116,0,.9138-.2529,1.6226-.7463,2.1013-.4197.3777-1.012.6011-1.7629.6653.1057-.8706.1592-1.5911.1587-2.1333Z"/>
          <path d="M55.6262,279.9339c.8743-.3743,1.6619-.9077,2.8323-1.5847,1.4553-.8228,2.8899-1.7153,4.2644-2.6526l.1899-.1296-1.4045-1.5452-.1462.1143c-2.1907,1.7112-4.4309,3.1809-6.6526,4.3655-.4719.2317-.866.488-1.1707.7625-.2097.1887-.3162.4468-.3162.7673,0,.1484.0505.314.1641.5125.0955.1294.2722.29.5544.5007,1.3608.854,2.512,1.645,3.4185,2.3489.7849.6331,2.02,1.8013,3.6707,3.4724l.1184.1196,1.718-1.1948-.1836-.1689c-1.8323-1.6858-3.3103-2.9399-4.3965-3.7297-.9182-.6382-1.6189-1.2463-2.5752-1.8079l-.1766-.1064.0914-.0437Z"/>
          <path d="M108.3933,283.314c-1.4934-1.0449-2.3525-1.6482-2.552-1.7925-1.2407-.9673-2.563-2.063-3.9312-3.2571-1.5574-1.301-1.877-1.542-1.9951-1.6111-.2812-.1267-.5681-.1909-.8525-.1909-.6282,0-1.2627.4153-1.939,1.2678-.2878.3325-1.3347,1.3872-3.1116,3.1353l-.1992.1963,1.645,1.3325.1589-.1638c1.1707-1.2043,2.082-2.2349,2.7092-3.063.386-.5217.5312-.6235.5586-.6396l.0369-.0039.0374-.0339c.0125-.0032.0437-.0088.1038-.0088.053,0,.0847.0046.1001.0068l.0474.0276c.2261.1016.4644.2437.6853.4075.6658.6003,1.3384,1.2246,2,1.8564,1.1619,1.0466,2.8911,2.4514,5.1401,4.175l.1877.1443,1.3604-1.585.0361-.0417-.2263-.1582Z"/>
          <path d="M72.1264,273.4556c0,3.9351-.0698,6.3496-.2092,7.1863-.1355,1.0991-.4783,2.0671-1.0154,2.8728-.5469.7793-1.4536,1.657-2.6951,2.6084l-.2148.1646.2012.1812c.5977.5378,1.0188.9377,1.2515,1.1882l.1438.155.1636-.134c.5103-.4182,1.0806-.9102,1.6953-1.4622l.0225-.0234c.4246-.5093.8325-1.0706,1.2095-1.6643.2776-.4155.5679-1.0464.8855-1.9248h3.6946v2.939c0,.0161-.0017.0256,0,.0264l-2.2349.0017.3208.3721c.4202.4871.5051.6458.5215.6895.0439.1201.0774.22.0999.2986.0229.0842.0815.2952.176.634l.0562.2009.2048-.0408c1.3164-.2634,2.1331-.5498,2.4968-.8762.3293-.2961.4966-.7783.4966-1.4329v-12.1851h-7.2705v.2251ZM77.2592,278.7432v2.0176h-3.3171c.0715-.6021.1284-1.2788.1697-2.0176h3.1475ZM74.1235,276.9639v-1.8911h3.1357v1.8911h-3.1357Z"/>
          <path d="M70.8188,273.8633h-6.2861v10.2048h2.0674v-.9524h4.2187v-9.2524ZM68.6811,279.4392v1.8342h-2.0811v-1.8342h2.0811ZM68.6811,275.5791v2.1443h-2.0811v-2.1443h2.0811Z"/>
          <path d="M81.1943,287.4326h2.2061v-1.1206h6.9492v.8569h2.2793v-13.7563h-11.4346v14.02ZM83.4004,278.8838v-3.5801h6.9492v3.5801h-6.9492ZM90.3496,280.6431v3.8437h-6.9492v-3.8437h6.9492Z"/>
        </g>
      </g>
    </g>
  </g>
</svg>