<?xml version="1.0" encoding="UTF-8"?>
<svg xmlns="http://www.w3.org/2000/svg" viewBox="0 0 256 352">
  <defs>
    <style>
      * {transition: .3s;}
      .logo {fill: #006400;}
      .texts {fill: #000;}
      .back {fill: none;}
      <!-- .back {fill: #888;} -->

      @media (prefers-color-scheme: dark) {
        .logo {fill: #fff;}
        .texts {fill: #fff}
      }
    </style>
  </defs>
  <g>
    <rect class="back" x=".0005" width="256" height="352"/>
    <g class="logo">
      <polygon class="cls-2" points="148.4462 256 94.7805 256 152.3077 140.9458 195.2402 162.412 148.4462 256"/>
      <polygon class="cls-2" points="157.3904 256 205.9733 158.8343 148.7299 130.2126 85.8363 256 76.892 256 111.9976 185.7889 54.7542 157.1672 5.3378 256 .0005 256 .0005 0 256.0005 0 256.0005 256 237.8889 256 250.6631 230.4515 193.4198 201.8299 166.3347 256 157.3904 256"/>
      <polygon class="cls-2" points="239.93 234.0292 228.9446 256 175.279 256 196.9975 212.563 239.93 234.0292"/>
      <polygon class="cls-2" points="101.2644 189.3666 67.9477 256 14.2821 256 58.3319 167.9003 101.2644 189.3666"/>
    </g>
    <g class="texts">
      <g class="type">
        <polygon points="178.9033 300 169.1313 311.2861 169.1313 288.1562 158.3813 288.1562 158.3813 336.0625 169.1313 336.0625 169.1313 324.7459 171.6059 322.1664 179.3891 336.0625 192.4805 336.0625 179.5879 314.315 192.6674 300 178.9033 300"/>
        <path d="M211.1852,300l-6.2996,22.5107-6.6637-22.5107h-12.0645l12.9242,36.7689c-.0215.1389-.1117.5383-.4887,1.4857-.4867,1.2207-.8902,1.6283-1.093,1.7666-.4074.2818-.9332.4668-1.5613.5496-.7305.0959-1.5125.1248-2.3145.0869l-2.1805-.1211v9.1189l.9348.0609c.9602.0627,1.7.1,2.2004.1113.484.0102,1.1262.0158,1.9273.0158,4.2863,0,7.1117-.8773,8.6387-2.6824,1.4051-1.6621,3.2121-5.6961,5.5242-12.3318l12.1512-34.8295h-11.6352Z"/>
        <polygon points="34.3508 288 25.818 306.6971 16.9062 288 3.2336 288 19.8687 318.0086 19.8687 336.0625 31.4937 336.0625 31.4937 318.001 47.5703 288 34.3508 288"/>
        <path d="M120.1066,303.5561c-1.2902-1.5842-2.7613-2.7145-4.373-3.3596-1.5711-.6281-3.1891-.9465-4.8086-.9465-2.4,0-4.6137.51-6.6016,1.5271-1.4172.7682-2.6691,1.8684-3.7363,3.282-.6508-1.1074-1.4648-2.0662-2.4332-2.8627l-.0543-.0416c-1.7703-1.2641-4.0898-1.9049-6.8934-1.9049-2.9633,0-5.4289.743-7.3266,2.2061-.5004.383-1.0039.8707-1.5172,1.4705v-2.8641h-10.6562v36h11.0312v-21.5c0-1.6865.2051-2.9422.6016-3.718.6937-1.3043,2.0812-1.9383,4.2422-1.9383,2.3645,0,3.1277,1.075,3.4965,1.8834.2441.5387.5348,1.6682.5348,3.9916v21.2812h10.9688v-21.2812c0-1.3744.2129-2.5523.6273-3.4889.777-1.692,2.107-2.4799,4.1852-2.4799,1.7523,0,2.8586.5791,3.4805,1.8219.3445.6902.5195,1.6123.5195,2.7406v22.6875h11.1223l.0652-22.4688c0-2.2863-.1074-3.9904-.3305-5.2207-.3633-1.883-1.084-3.5025-2.1441-4.817Z"/>
        <path d="M241.5313,300v19.5312c0,2.0377-.2664,3.6799-.7844,4.8652-.9555,2.0883-2.7023,3.1035-5.3406,3.1035-2.6242,0-3.4691-1.1523-3.8758-2.018-.3934-.84-.593-2.1693-.593-3.9508v-21.5312h-11.125v21.5312c0,4.0893.5137,7.126,1.5684,9.2785,1.9227,3.9832,5.6531,6.0027,11.0879,6.0027,1.8539,0,3.5059-.2504,4.9102-.7441,1.4195-.4996,2.8937-1.4285,4.3687-2.7492.0535-.0463.1063-.0934.1586-.1412v2.8846h10.6562v-36.0625h-11.0312Z"/>
        <path d="M151.4922,301.5156c-3.025-1.5447-6.5215-2.3281-10.3922-2.3281-6.0254,0-10.3695,1.6428-12.9117,4.8826l-.0051.0064c-1.5961,2.0682-2.5066,4.7234-2.7062,7.8918l-.0668,1.0629h10.5129l.1336-.8436c.1785-1.1295.5281-2.0217,1.0277-2.6381.6723-.8002,1.9184-1.2059,3.7031-1.2059,1.6961,0,2.9695.2266,3.7848.6736.4008.2199.934.668.934,2.0139,0,.4926-.1477,1.1209-1.3098,1.6162-.4246.1873-1.3336.4615-3.2504.7039l-3.0348.3754c-3.6035.4586-6.2812,1.2152-8.1883,2.3146-3.5445,2.0578-5.3418,5.4084-5.3418,9.9586,0,3.5158,1.1293,6.2871,3.357,8.2367,2.1887,1.9166,4.9809,2.8883,8.2992,2.8883,2.5816,0,4.9367-.6021,7.0047-1.793.8709-.5092,1.6924-1.0817,2.4641-1.707v2.4375h10.875v-25.2812c0-4.4904-1.6449-7.6078-4.8891-9.2656ZM143.3879,327.1482c-1.4566,1.0146-3.0023,1.508-4.7254,1.508-.9781,0-1.7719-.2625-2.4258-.8023l-.0219-.0176c-.6031-.4701-.8961-1.2855-.8961-2.4926,0-1.359.4992-2.2869,1.5703-2.9197.4852-.2859,1.5207-.7082,3.7078-1.0975l2-.375c1.0676-.2002,1.8957-.4154,2.532-.658.1152-.0441.2309-.0908.3461-.14l.0004,1.6381c-.0555,2.6273-.7578,4.4297-2.0875,5.3566Z"/>
        <path d="M64.8172,301.5156c-3.025-1.5447-6.5215-2.3281-10.3922-2.3281-6.0254,0-10.3695,1.6428-12.9117,4.8826l-.0051.0064c-1.5961,2.0682-2.5066,4.7234-2.7062,7.8918l-.0668,1.0629h10.5129l.1336-.8436c.1785-1.1295.5281-2.0217,1.0277-2.6381.6723-.8002,1.9184-1.2059,3.7031-1.2059,1.6961,0,2.9695.2266,3.7848.6736.4008.2199.934.668.934,2.0139,0,.4926-.1477,1.1209-1.3098,1.6162-.4246.1873-1.3336.4615-3.2504.7039l-3.0348.3754c-3.6035.4586-6.2812,1.2152-8.1883,2.3146-3.5445,2.0578-5.3418,5.4084-5.3418,9.9586,0,3.5158,1.1293,6.2871,3.357,8.2367,2.1887,1.9166,4.9809,2.8883,8.2992,2.8883,2.5816,0,4.9367-.6021,7.0047-1.793.8709-.5092,1.6924-1.0817,2.4641-1.707v2.4375h10.875v-25.2812c0-4.4904-1.6449-7.6078-4.8891-9.2656ZM56.7129,327.1482c-1.4566,1.0146-3.0023,1.508-4.7254,1.508-.9781,0-1.7719-.2625-2.4258-.8023l-.0219-.0176c-.6031-.4701-.8961-1.2855-.8961-2.4926,0-1.359.4992-2.2869,1.5703-2.9197.4852-.2859,1.5207-.7082,3.7078-1.0975l2-.375c1.0676-.2002,1.8957-.4154,2.532-.658.1152-.0441.2309-.0908.3461-.14l.0004,1.6381c-.0555,2.6273-.7578,4.4297-2.0875,5.3566Z"/>
      </g>
      <g class="catch">
        <rect x="187" y="275.6248" width="67" height=".75"/>
        <polygon points="5.7344 272.406 11.5078 272.406 11.5078 270.1326 3.0938 270.1326 3.0938 281.8826 5.7344 281.8826 5.7344 277.0544 10.7891 277.0544 10.7891 274.8044 5.7344 274.8044 5.7344 272.406"/>
        <path d="M15.6807,272.8435c-1.4966,0-2.6309.4707-3.3711,1.3984-.7334.9199-1.1055,2.0215-1.1055,3.2734,0,1.2739.3721,2.3794,1.106,3.2856.7402.9146,1.874,1.3784,3.3706,1.3784s2.6304-.4639,3.3706-1.3784c.7339-.9062,1.106-2.0117,1.106-3.2856,0-1.252-.3721-2.3535-1.1055-3.2734-.7402-.9277-1.8745-1.3984-3.3711-1.3984ZM14.2686,275.6184c.3296-.4321.7886-.6421,1.4043-.6421.6152,0,1.0732.21,1.4004.6416.3306.437.498,1.0757.498,1.8975,0,.8223-.1675,1.4619-.4985,1.9014-.3267.4346-.7847.6455-1.3999.6455-.6157,0-1.0747-.2114-1.4043-.646-.333-.439-.502-1.0786-.502-1.9009s.1689-1.4604.502-1.897Z"/>
        <path d="M25.5674,272.9182c-.0317-.0029-.0703-.0044-.1162-.0044-.6934,0-1.2671.186-1.7041.5518-.208.1699-.437.4429-.6943.8296v-1.1782h-2.375v8.7656h2.4922v-4.1953c0-.6587.082-1.1489.2432-1.4575.2866-.5439.8408-.8081,1.6943-.8081.0659,0,.1528.0029.2593.0078.1074.0049.23.0151.3677.0303l.1387.0156v-2.54l-.1187-.0059c-.0957-.0044-.1577-.0083-.187-.0112Z"/>
        <path d="M37.9951,271.0378c-.7075-.6108-1.6655-.9209-2.8472-.9209h-5.1406v11.7656h2.6406v-4.1406h2.3203c1.2998,0,2.3174-.2935,3.0244-.8721.7148-.5845,1.0771-1.5874,1.0771-2.9795,0-1.2769-.3613-2.2368-1.0747-2.8525ZM32.648,272.3669h2.1172c.5352,0,.9541.1196,1.2456.355.2827.2295.4263.6279.4263,1.1841,0,.5586-.1436.9688-.4263,1.2188-.2925.2539-.7114.3828-1.2456.3828h-2.1172v-3.1406Z"/>
        <path d="M44.8164,272.9353l-.1187-.0059c-.0957-.0044-.1577-.0083-.187-.0112-.0317-.0029-.0703-.0044-.1162-.0044-.6934,0-1.2671.186-1.7041.5518-.208.1699-.437.4429-.6943.8296v-1.1782h-2.375v8.7656h2.4922v-4.1953c0-.6587.082-1.1489.2432-1.4575.2866-.5439.8408-.8081,1.6943-.8081.0659,0,.1528.0029.2593.0078.1074.0049.23.0151.3677.0303l.1387.0156v-2.54Z"/>
        <path d="M49.1846,272.8435c-1.4966,0-2.6309.4707-3.3711,1.3984-.7334.9199-1.1055,2.0215-1.1055,3.2734,0,1.2739.3721,2.3794,1.106,3.2856.7402.9146,1.874,1.3784,3.3706,1.3784s2.6304-.4639,3.3706-1.3784c.7339-.9062,1.106-2.0117,1.106-3.2856,0-1.252-.3721-2.3535-1.1055-3.2734-.7402-.9277-1.8745-1.3984-3.3711-1.3984ZM47.7725,275.6184c.3296-.4321.7886-.6421,1.4043-.6421.6152,0,1.0732.21,1.4004.6416.3306.437.498,1.0757.498,1.8975,0,.8223-.1675,1.4619-.4985,1.9014-.3267.4346-.7847.6455-1.3999.6455-.6157,0-1.0747-.2114-1.4043-.646-.333-.439-.502-1.0786-.502-1.9009s.1689-1.4604.502-1.897Z"/>
        <path d="M66.2036,273.9597c-.3091-.3789-.6597-.6489-1.0425-.8027-.3789-.1509-.7676-.2275-1.1558-.2275-.5801,0-1.1147.123-1.5908.3667-.3901.2114-.7285.5293-1.0083.9468-.1685-.3389-.395-.6265-.6797-.8604-.4219-.3008-.9771-.4531-1.6509-.4531-.7124,0-1.3032.1768-1.7559.5259-.188.1436-.3794.3521-.5801.6313v-.9541h-2.4141v8.75h2.5078v-5.25c0-.4419.0557-.7749.165-.9883.1973-.3706.5801-.5508,1.1709-.5508.4976,0,.8208.1777.9878.5439.0962.2124.145.5659.145,1.0498v5.1953h2.4922v-5.1953c0-.3613.0566-.6729.1685-.9243.2139-.4663.5933-.6929,1.1597-.6929.4839,0,.8052.1719.9819.5244.0947.1904.1431.4399.1431.7412v5.5469h2.5308l.0161-5.4922c0-.5552-.0269-.9858-.0806-1.2817-.0869-.4502-.2583-.8364-.5103-1.1489Z"/>
        <rect x="67.5024" y="270.0466" width="2.5078" height="2.3047"/>
        <rect x="67.5024" y="273.1169" width="2.5078" height="8.7656"/>
        <path d="M75.71,276.5105c-1.6328-.3584-2.145-.5269-2.2891-.606-.1782-.0928-.2612-.2339-.2612-.4438,0-.1626.0845-.3032.2573-.4307.1831-.1343.5063-.2021.9614-.2021.5459,0,.9336.1367,1.1514.4048.1152.1484.188.3555.2168.6167l.0117.1113h2.4766l-.0132-.1367c-.1025-1.0771-.5083-1.8496-1.2056-2.2969l-.001-.0005c-.689-.4326-1.5864-.6519-2.668-.6519-1.1465,0-2.0518.2964-2.6899.8804-.6411.5874-.9663,1.3008-.9663,2.1196,0,.7012.2139,1.2476.6348,1.6235.4097.3726,1.1138.6846,2.0942.9277,1.6421.3901,2.1479.5723,2.2827.6562.1709.1069.2539.2588.2539.4644,0,.2144-.1011.3652-.3184.4746-.2383.1206-.5703.1816-.9863.1816-.7051,0-1.1899-.1362-1.4399-.4058-.1372-.146-.2285-.4058-.272-.7729l-.0132-.1104h-2.4937v.125c0,.9087.3359,1.667.999,2.2539.6587.583,1.6841.8789,3.0479.8789,1.3364,0,2.3428-.2793,2.9912-.8306.6538-.5562.9854-1.2837.9854-2.1616,0-.6724-.2334-1.2412-.6948-1.6919-.457-.4355-1.1465-.7642-2.0518-.9771Z"/>
        <rect x="78.9263" y="270.0466" width="2.5078" height="2.3047"/>
        <rect x="78.9263" y="273.1169" width="2.5078" height="8.7656"/>
        <path d="M89.3037,273.6335c-.5806-.4775-1.334-.7197-2.2397-.7197-.728,0-1.3394.1821-1.8174.541-.1958.1479-.4014.3647-.6123.6475v-.9697h-2.3984v8.75h2.4688v-4.7344c0-.5063.0703-.9263.208-1.2466.2622-.5962.7329-.8862,1.4404-.8862.5684,0,.9404.1919,1.1382.5869.1104.2217.1665.5498.1665.9756v5.3047h2.5312v-5.8594c0-1.1016-.2979-1.9053-.8853-2.3896Z"/>
        <path d="M96.8848,274.0398c-.3115-.4272-.6934-.7363-1.1401-.9214-.3325-.1357-.7241-.2046-1.1646-.2046-1.1934,0-2.1289.4521-2.7808,1.3442-.6431.8799-.9692,1.9785-.9692,3.2651,0,1.3374.3398,2.4146,1.0103,3.2021.6748.7939,1.5889,1.1963,2.7163,1.1963.7334,0,1.3398-.1797,1.8013-.5327.1694-.126.3325-.2944.4878-.5034v.1299c0,.7881-.0845,1.3525-.252,1.6782-.2505.4951-.7407.7358-1.498.7358-.5352,0-.915-.0923-1.1299-.2749l-.002-.0015c-.1182-.0967-.2065-.2632-.2622-.4951l-.0229-.0957h-2.6567l.0117.1357c.0762.8862.4795,1.562,1.1992,2.0098.7051.4375,1.6235.6592,2.73.6592,1.8374,0,3.103-.5024,3.7603-1.4937.3818-.5757.5757-1.4351.5757-2.5532v-8.2031h-2.4141v.9229ZM96.3853,275.6956c.3213.3975.4839.9912.4839,1.7651,0,.8232-.1704,1.4272-.5063,1.7944-.3374.3696-.7393.5493-1.228.5493-.7329,0-1.2271-.3276-1.5098-1.0015l-.0005-.0015c-.1592-.3667-.2397-.7944-.2397-1.2705,0-.5542.0757-1.0249.2251-1.3984.2783-.6885.7695-1.0234,1.5015-1.0234.5381,0,.9546.1919,1.2739.5864Z"/>
        <polygon points="112.7695 270.1169 103.1914 270.1169 103.1914 272.406 106.6524 272.406 106.6524 281.8826 109.3242 281.8826 109.3242 272.406 112.7695 272.406 112.7695 270.1169"/>
        <path d="M115.7192,272.8435c-1.4966,0-2.6309.4707-3.3711,1.3984-.7334.9199-1.1055,2.0215-1.1055,3.2734,0,1.2739.3721,2.3794,1.106,3.2856.7402.9146,1.874,1.3784,3.3706,1.3784s2.6304-.4639,3.3706-1.3784c.7339-.9062,1.106-2.0117,1.106-3.2856,0-1.252-.3721-2.3535-1.1055-3.2734-.7402-.9277-1.8745-1.3984-3.3711-1.3984ZM114.3071,275.6184c.3296-.4321.7886-.6421,1.4043-.6421.6152,0,1.0732.21,1.4004.6416.3306.437.498,1.0757.498,1.8975,0,.8223-.1675,1.4619-.4985,1.9014-.3267.4346-.7847.6455-1.3999.6455-.6157,0-1.0747-.2114-1.4043-.646-.333-.439-.502-1.0786-.502-1.9009s.1689-1.4604.502-1.897Z"/>
        <path d="M132.7388,273.9597c-.3091-.3789-.6597-.6489-1.0425-.8027-.3789-.1509-.7676-.2275-1.1558-.2275-.5801,0-1.1147.123-1.5908.3667-.3901.2114-.7285.5293-1.0083.9468-.1685-.3389-.395-.6265-.6797-.8604-.4219-.3008-.9771-.4531-1.6509-.4531-.7124,0-1.3032.1768-1.7559.5259-.188.1436-.3794.3521-.5801.6313v-.9541h-2.4141v8.75h2.5078v-5.25c0-.4419.0557-.7749.165-.9883.1973-.3706.5801-.5508,1.1709-.5508.4976,0,.8208.1777.9878.5439.0962.2124.145.5659.145,1.0498v5.1953h2.4922v-5.1953c0-.3613.0566-.6729.1685-.9243.2139-.4663.5933-.6929,1.1597-.6929.4839,0,.8052.1719.9819.5244.0947.1904.1431.4399.1431.7412v5.5469h2.5308l.0161-5.4922c0-.5552-.0269-.9858-.0806-1.2817-.0869-.4502-.2583-.8364-.5103-1.1489Z"/>
        <path d="M146.0049,273.9597c-.3091-.3789-.6597-.6489-1.0425-.8027-.3789-.1509-.7676-.2275-1.1558-.2275-.5801,0-1.1147.123-1.5908.3667-.3901.2114-.7285.5293-1.0083.9468-.1685-.3389-.395-.6265-.6797-.8604-.4219-.3008-.9771-.4531-1.6509-.4531-.7124,0-1.3032.1768-1.7559.5259-.188.1436-.3794.3521-.5801.6313v-.9541h-2.4141v8.75h2.5078v-5.25c0-.4419.0557-.7749.165-.9883.1973-.3706.5801-.5508,1.1709-.5508.4976,0,.8208.1777.9878.5439.0962.2124.145.5659.145,1.0498v5.1953h2.4922v-5.1953c0-.3613.0566-.6729.1685-.9243.2139-.4663.5933-.6929,1.1597-.6929.4839,0,.8052.1719.9819.5244.0947.1904.1431.4399.1431.7412v5.5469h2.5308l.0161-5.4922c0-.5552-.0269-.9858-.0806-1.2817-.0869-.4502-.2583-.8364-.5103-1.1489Z"/>
        <path d="M151.7061,272.8435c-1.4966,0-2.6309.4707-3.3711,1.3984-.7334.9199-1.1055,2.0215-1.1055,3.2734,0,1.2739.3721,2.3794,1.106,3.2856.7402.9146,1.874,1.3784,3.3706,1.3784s2.6304-.4639,3.3706-1.3784c.7339-.9062,1.106-2.0117,1.106-3.2856,0-1.252-.3721-2.3535-1.1055-3.2734-.7402-.9277-1.8745-1.3984-3.3711-1.3984ZM150.294,275.6184c.3296-.4321.7886-.6421,1.4043-.6421.6152,0,1.0732.21,1.4004.6416.3306.437.498,1.0757.498,1.8975,0,.8223-.1675,1.4619-.4985,1.9014-.3267.4346-.7847.6455-1.3999.6455-.6157,0-1.0747-.2114-1.4043-.646-.333-.439-.502-1.0786-.502-1.9009s.1689-1.4604.502-1.897Z"/>
        <path d="M162.0581,272.9353l-.1187-.0059c-.0957-.0044-.1577-.0083-.187-.0112-.0317-.0029-.0703-.0044-.1162-.0044-.6934,0-1.2671.186-1.7041.5518-.208.1699-.437.4429-.6943.8296v-1.1782h-2.375v8.7656h2.4922v-4.1953c0-.6587.082-1.1489.2432-1.4575.2866-.5439.8408-.8081,1.6943-.8081.0659,0,.1528.0029.2593.0078.1074.0049.23.0151.3677.0303l.1387.0156v-2.54Z"/>
        <path d="M166.4258,272.8435c-1.4966,0-2.6309.4707-3.3711,1.3984-.7334.9199-1.1055,2.0215-1.1055,3.2734,0,1.2739.3721,2.3794,1.106,3.2856.7402.9146,1.874,1.3784,3.3706,1.3784s2.6304-.4639,3.3706-1.3784c.7339-.9062,1.106-2.0117,1.106-3.2856,0-1.252-.3721-2.3535-1.1055-3.2734-.7402-.9277-1.8745-1.3984-3.3711-1.3984ZM165.0137,275.6184c.3296-.4321.7886-.6421,1.4043-.6421.6152,0,1.0732.21,1.4004.6416.3306.437.498,1.0757.498,1.8975,0,.8223-.1675,1.4619-.4985,1.9014-.3267.4346-.7847.6455-1.3999.6455-.6157,0-1.0747-.2114-1.4043-.646-.333-.439-.502-1.0786-.502-1.9009s.1689-1.4604.502-1.897Z"/>
        <polygon points="180.5293 273.1169 179.3032 278.7776 178.127 273.2161 178.1065 273.1169 175.6445 273.1169 174.5156 278.7405 173.293 273.1169 170.6367 273.1169 173.0723 281.7913 173.0977 281.8826 175.6055 281.8826 176.856 276.1448 178.0913 281.8826 180.5752 281.8826 183.1167 273.1169 180.5293 273.1169"/>
      </g>
    </g>
  </g>
</svg>