<?xml version="1.0" encoding="UTF-8"?>
<svg id="_レイヤー_2" data-name="レイヤー_2" xmlns="http://www.w3.org/2000/svg" viewBox="0 0 256 256">
  <defs>
    <style>
      .cls-1 {
        fill: #006400;
      }

      .cls-2 {
        fill: #fff;
      }
    </style>
  </defs>
  <g id="_x30_">
    <g>
      <rect class="cls-2" width="256" height="256"/>
      <g>
        <g id="LWPOLYLINE">
          <polygon class="cls-1" points="148.4457 256 94.7801 256 152.3072 140.9458 195.2397 162.412 148.4457 256"/>
        </g>
        <g id="LWPOLYLINE-2" data-name="LWPOLYLINE">
          <polygon class="cls-1" points="157.39 256 205.9728 158.8343 148.7295 130.2126 85.8358 256 76.8915 256 111.9971 185.7889 54.7538 157.1672 5.3373 256 0 256 0 0 256 0 256 256 237.8884 256 250.6627 230.4515 193.4193 201.8299 166.3342 256 157.39 256"/>
        </g>
        <g id="LWPOLYLINE-3" data-name="LWPOLYLINE">
          <polygon class="cls-1" points="239.9295 234.0292 228.9441 256 175.2785 256 196.997 212.563 239.9295 234.0292"/>
        </g>
        <g id="LWPOLYLINE-4" data-name="LWPOLYLINE">
          <polygon class="cls-1" points="101.264 189.3666 67.9472 256 14.2816 256 58.3315 167.9003 101.264 189.3666"/>
        </g>
      </g>
    </g>
  </g>
</svg>