<?xml version="1.0" encoding="UTF-8"?>
<svg id="_レイヤー_2" data-name="レイヤー 2" xmlns="http://www.w3.org/2000/svg" viewBox="0 0 256 256">
  <defs>
    <style>
      .cls-1 {
        <!-- fill: #205020; -->
        fill: #f00;
      }
    </style>
  </defs>
  <g id="_0" data-name="0">
    <g>
      <g id="right">
        <polygon class="cls-1" points="196.997 212.563 239.9295 234.0292 228.9441 256 175.2785 256 196.997 212.563"/>
      </g>
      <g id="frame" data-name="LWPOLYLINE">
        <polygon class="cls-1" points="250.6627 230.4515 193.4193 201.8299 166.3342 256 157.39 256 158.2844 254.2111 205.9728 158.8343 148.7295 130.2126 85.8358 256 76.8915 256 111.9971 185.7889 54.7538 157.1672 5.3373 256 0 256 0 0 256 0 256 256 237.8884 256 250.6627 230.4515"/>
      </g>
      <g id="center" data-name="LWPOLYLINE">
        <polygon class="cls-1" points="152.3072 140.9458 195.2397 162.412 151.129 250.6334 148.4457 256 94.7801 256 152.3072 140.9458"/>
      </g>
      <g id="left" data-name="LWPOLYLINE">
        <polygon class="cls-1" points="101.264 189.3666 67.9472 256 14.2816 256 58.3315 167.9003 101.264 189.3666"/>
      </g>
    </g>
  </g>
</svg>